<?xml version="1.0" standalone="no"?>
<!DOCTYPE svg PUBLIC "-//W3C//DTD SVG 20010904//EN"
 "http://www.w3.org/TR/2001/REC-SVG-20010904/DTD/svg10.dtd">
<svg version="1.0" xmlns="http://www.w3.org/2000/svg"
 width="1280.000000pt" height="974.000000pt" viewBox="0 0 1280.000000 974.000000"
 preserveAspectRatio="xMidYMid meet">
<metadata>
Created by potrace 1.15, written by Peter Selinger 2001-2017
</metadata>
<g transform="translate(0.000000,974.000000) scale(0.100000,-0.100000)"
fill="#000000" stroke="none">
<path d="M9808 8894 c-192 -29 -374 -83 -564 -164 -107 -46 -1550 -837 -1718
-942 -456 -285 -778 -707 -872 -1143 -25 -120 -23 -315 5 -430 42 -175 151
-354 281 -463 320 -269 809 -342 1340 -201 127 34 304 101 423 161 164 82
1566 863 1657 922 421 277 710 654 817 1065 25 94 28 123 27 261 0 127 -4 169
-22 235 -47 169 -125 299 -254 420 -162 153 -380 251 -631 284 -107 15 -383
12 -489 -5z"/>
<path d="M2077 6754 c-472 -73 -804 -338 -909 -723 -25 -91 -30 -319 -10 -416
102 -477 488 -921 1037 -1190 212 -104 1538 -699 1665 -748 516 -196 1049
-197 1441 -2 114 56 167 93 260 183 131 125 218 279 254 453 21 101 19 293 -4
399 -100 449 -463 873 -974 1140 -62 32 -339 161 -617 285 -278 125 -579 261
-670 302 -433 196 -512 227 -704 274 -65 16 -168 35 -228 44 -134 19 -419 18
-541 -1z"/>
<path d="M9975 2504 c-429 -32 -638 -64 -900 -140 -159 -47 -344 -128 -442
-195 -66 -46 -139 -125 -168 -182 l-25 -51 0 -445 c0 -511 -3 -486 92 -587
101 -107 249 -189 478 -265 665 -219 1705 -219 2370 0 229 76 377 158 478 264
94 100 91 82 93 590 l1 443 -27 55 c-124 243 -625 435 -1305 499 -119 11 -557
21 -645 14z"/>
</g>
</svg>
